# xmcd
#
# Track frame offsets:
#	182
#	13077
#	32950
#	54537
#	73220
#	94640
#	111507
#	133445
#	160325
#	188450
#	217912
#	243892
#	268667
#	308492
#
# Disc length: 4223 seconds
#
# Revision: 1
# Processed by: cddbd v1.5.1PL0 Copyright (c) Steve Scherf et al.
# Submitted via: audiograbber 1.82.02
#
DISCID=c6107d0e
DTITLE=Raw Hide - Hugger-Mugger
DYEAR=1900
DGENRE=Blues
TTITLE0=Hugger Mugger part 1
TTITLE1=Country Girl
TTITLE2=No2
TTITLE3=This Is My Apartment
TTITLE4=You Killing Me
TTITLE5=It's Too Late Brother
TTITLE6=Rollin 'n' Tumblin'
TTITLE7=Country Boy
TTITLE8=In The Middle
TTITLE9=Too Proud
TTITLE10=Dad Will Be Able
TTITLE11=Stan's Boogie
TTITLE12=Five Long Years
TTITLE13=Higger Mugger part2
EXTD=
EXTT0=
EXTT1=
EXTT2=
EXTT3=
EXTT4=
EXTT5=
EXTT6=
EXTT7=
EXTT8=
EXTT9=
EXTT10=
EXTT11=
EXTT12=
EXTT13=
PLAYORDER=
